<?xml version="1.0" encoding="UTF-8" standalone="no"?>
<!DOCTYPE svg PUBLIC "-//W3C//DTD SVG 1.1//EN" "http://www.w3.org/Graphics/SVG/1.1/DTD/svg11.dtd">
<svg version="1.1" xmlns="http://www.w3.org/2000/svg" xmlns:xlink="http://www.w3.org/1999/xlink" preserveAspectRatio="xMidYMid meet" viewBox="0 0 270 305" width="270" height="305"><defs><path d="M254.69 259.97L234.69 299.97L24.69 299.97L4.69 259.97C5.36 257.3 5.78 255.62 5.95 254.95C11.33 233.42 28.14 216.61 49.67 211.23C50.34 211.06 52.02 210.64 54.69 209.97L204.69 209.97C207.37 210.64 209.05 211.06 209.71 211.23C231.24 216.61 248.06 233.42 253.44 254.95C253.61 255.62 254.02 257.3 254.69 259.97Z" id="aUaB9H8JX"></path><path d="M65.93 199.97L194.69 199.97C194.57 199.34 194.49 198.95 194.46 198.79C192.87 190.53 189.22 182.81 183.86 176.34C183.74 176.2 183.45 175.85 182.99 175.28L77.64 175.28C76.92 176.04 76.48 176.52 76.3 176.7C70.69 182.66 67.12 190.25 66.13 198.37C66.1 198.59 66.04 199.12 65.93 199.97Z" id="e5lI57XAji"></path><path d="M234.69 210.53L259.87 241.62L265.31 237.21L240.13 206.13L234.69 210.53Z" id="aw7rhG6JV"></path><path d="M101.09 65.03C102.24 55.45 102.96 49.46 103.25 47.06C104.2 39.1 106.53 31.36 110.12 24.18C111.03 22.35 109.56 25.29 110.78 22.85C113.32 17.77 117.44 13.65 122.52 11.11C124.95 9.9 123.22 10.76 125.35 9.7C131.49 6.63 138.27 5.03 145.14 5.03C149.05 5.03 148.55 5.03 152.01 5.03C160.45 5.03 168.87 5.77 177.18 7.24C187.52 9.07 213.36 13.64 254.69 20.95L254.69 45.03C210.85 45.03 183.45 45.03 172.49 45.03C167.43 45.03 162.5 46.65 158.43 49.67C157.69 50.23 161.42 47.46 160.6 48.07C156.88 50.82 154.69 55.18 154.69 59.8C154.69 60.5 154.69 62.24 154.69 65.03L164.69 165.03L94.69 165.03L101.09 65.03Z" id="bfOX98GqB"></path></defs><g><g><g><g><use xlink:href="#aUaB9H8JX" opacity="1" fill="#7a4419" fill-opacity="1"></use><g><use xlink:href="#aUaB9H8JX" opacity="1" fill-opacity="0" stroke="#5c361e" stroke-width="5" stroke-opacity="1"></use></g></g><g><use xlink:href="#e5lI57XAji" opacity="1" fill="#7a4419" fill-opacity="1"></use><g><use xlink:href="#e5lI57XAji" opacity="1" fill-opacity="0" stroke="#5c361e" stroke-width="5" stroke-opacity="1"></use></g></g><g><use xlink:href="#aw7rhG6JV" opacity="1" fill="#7a4419" fill-opacity="1"></use><g><use xlink:href="#aw7rhG6JV" opacity="1" fill-opacity="0" stroke="#5c361e" stroke-width="5" stroke-opacity="1"></use></g></g><g><use xlink:href="#bfOX98GqB" opacity="1" fill="#7a4419" fill-opacity="1"></use><g><use xlink:href="#bfOX98GqB" opacity="1" fill-opacity="0" stroke="#5c361e" stroke-width="5" stroke-opacity="1"></use></g></g></g></g></g></svg>